<?xml version="1.0" standalone="no"?>
<!DOCTYPE svg PUBLIC "-//W3C//DTD SVG 20010904//EN"
 "http://www.w3.org/TR/2001/REC-SVG-20010904/DTD/svg10.dtd">
<svg version="1.0" xmlns="http://www.w3.org/2000/svg"
 width="915.000000pt" height="916.000000pt" viewBox="0 0 915.000000 916.000000"
 preserveAspectRatio="xMidYMid meet">

<g transform="translate(0.000000,916.000000) scale(0.100000,-0.100000)"
fill="#000000" stroke="none">
<path d="M4446 8911 c-3 -4 -52 -11 -108 -15 -154 -11 -249 -32 -273 -61 -15
-18 -31 -25 -57 -25 -60 0 -379 -57 -536 -96 -470 -115 -869 -306 -1327 -633
-571 -408 -1028 -877 -1329 -1364 -207 -335 -411 -889 -505 -1367 -48 -249
-56 -332 -56 -635 1 -298 10 -419 56 -705 136 -862 391 -1489 858 -2105 417
-552 864 -921 1464 -1210 301 -145 490 -211 903 -315 428 -108 666 -140 1034
-140 548 0 946 79 1589 316 311 115 629 263 801 374 138 88 313 226 439 346
61 57 117 104 126 104 8 0 15 5 15 10 0 6 57 70 128 143 336 350 551 662 756
1096 132 279 210 511 310 921 69 278 103 459 132 700 26 204 26 731 0 945 -64
552 -209 998 -459 1415 -253 423 -656 918 -1001 1230 -349 315 -600 470 -1066
658 -69 28 -136 62 -151 76 -40 41 -78 51 -374 105 -154 29 -370 72 -480 96
-264 58 -519 101 -685 116 -74 6 -139 15 -144 20 -13 11 -53 12 -60 0z m-26
-278 c0 -82 5 -379 10 -662 9 -458 11 -516 26 -532 10 -11 27 -19 39 -19 22 0
22 -1 28 -257 4 -142 9 -541 12 -888 3 -346 8 -707 11 -802 l5 -171 -58 -7
c-32 -4 -85 -14 -118 -23 -85 -22 -163 -102 -227 -232 -60 -121 -72 -169 -66
-278 6 -108 33 -181 97 -265 l47 -62 -659 -877 c-640 -852 -660 -878 -692
-878 -31 0 -39 -8 -106 -102 -256 -361 -435 -601 -653 -878 -221 -282 -247
-318 -244 -347 5 -41 1 -39 -142 85 -727 629 -1234 1627 -1366 2693 -22 174
-30 609 -15 794 58 713 288 1400 654 1950 380 570 1051 1132 1761 1476 244
117 438 180 1001 324 374 96 351 92 358 66 8 -30 45 -28 53 4 6 26 9 26 192
33 l52 2 0 -147z m590 122 c318 -41 736 -126 935 -190 22 -7 92 -29 155 -49
94 -29 124 -43 158 -74 29 -27 42 -47 42 -66 0 -55 56 -41 62 15 l3 30 110
-57 c422 -220 967 -660 1299 -1048 376 -441 688 -965 847 -1426 120 -347 166
-621 176 -1045 12 -555 -59 -1112 -197 -1539 -202 -621 -491 -1141 -914 -1641
-122 -144 -154 -175 -158 -157 -12 43 -1101 1382 -1124 1382 -17 0 31 -53
-730 810 -357 405 -653 737 -659 738 -5 1 -10 -4 -10 -12 0 -7 301 -354 668
-770 l668 -757 -12 -34 c-11 -29 -10 -37 6 -61 10 -16 260 -330 555 -699 295
-368 539 -676 544 -683 11 -18 -3 -32 -114 -122 -342 -277 -797 -540 -1182
-684 -293 -109 -785 -220 -1133 -256 -173 -18 -626 -24 -795 -11 -170 13 -385
41 -555 72 -354 64 -965 342 -1441 654 -77 50 -179 121 -226 156 l-87 64 32 7
c17 3 36 13 42 21 5 8 20 17 33 21 14 5 96 109 219 279 108 150 290 391 403
537 365 470 346 440 317 483 -12 19 -13 25 -2 33 7 5 150 194 317 419 349 469
984 1305 993 1305 1 0 42 -21 89 -46 180 -95 291 -97 488 -6 67 31 94 51 141
103 71 77 122 180 138 274 11 66 10 78 -19 198 -45 182 -61 208 -164 274 -32
20 -58 43 -58 50 0 8 -12 18 -27 23 -16 6 -36 15 -45 20 -10 6 -58 10 -108 10
l-90 0 0 168 c0 92 -5 578 -10 1080 l-11 914 24 18 c18 14 26 33 30 73 11 88
-22 1096 -39 1196 l-6 34 149 -6 c81 -3 204 -14 273 -22z m-2829 -7732 c13
-16 12 -17 -3 -4 -17 13 -22 21 -14 21 2 0 10 -8 17 -17z"/>
</g>
</svg>
